<?xml version="1.0" standalone="no"?>
<!DOCTYPE svg PUBLIC "-//W3C//DTD SVG 20010904//EN"
 "http://www.w3.org/TR/2001/REC-SVG-20010904/DTD/svg10.dtd">
<svg version="1.0" xmlns="http://www.w3.org/2000/svg"
 width="928.000000pt" height="928.000000pt" viewBox="0 0 928.000000 928.000000"
 preserveAspectRatio="xMidYMid meet">
<metadata>
Created by potrace 1.14, written by Peter Selinger 2001-2017
</metadata>
<g transform="translate(0.000000,928.000000) scale(0.100000,-0.100000)"
fill="#000000" stroke="none">
<path d="M2258 7874 c-2 -1 -71 -6 -153 -9 -176 -8 -217 -11 -305 -19 -36 -4
-87 -9 -115 -11 -73 -6 -137 -14 -160 -19 -11 -2 -47 -7 -80 -11 -32 -3 -62
-8 -65 -10 -3 -2 -26 -6 -50 -10 -37 -5 -103 -19 -200 -40 -88 -19 -297 -84
-360 -112 -93 -41 -206 -98 -218 -110 -7 -7 -18 -13 -23 -13 -9 0 -45 -25
-130 -90 -42 -32 -122 -112 -165 -165 -43 -52 -148 -225 -138 -225 4 0 0 -7
-7 -17 -8 -9 -13 -19 -12 -22 2 -3 -6 -33 -17 -67 -11 -33 -23 -71 -25 -85
-14 -68 -18 -89 -25 -144 -11 -80 -12 -3705 -1 -3742 7 -24 27 -106 35 -145 4
-18 14 -41 52 -125 43 -95 113 -199 185 -275 l59 -61 0 -82 c0 -45 1 -201 3
-346 3 -252 5 -266 27 -314 34 -74 131 -169 183 -179 6 -2 21 -7 32 -12 11 -5
135 -9 275 -9 l255 0 65 36 c81 45 143 117 167 197 13 44 17 101 19 247 1 105
2 192 3 195 1 3 613 5 1361 5 748 0 1361 -2 1361 -5 1 -3 2 -93 4 -200 2 -156
6 -205 20 -245 33 -94 89 -156 183 -202 l57 -28 234 -2 c257 -1 301 5 377 57
95 66 159 185 155 288 -1 6 -1 18 -2 25 0 6 1 35 1 64 1 28 -1 56 -4 62 -4 5
-2 12 3 16 6 3 7 15 2 28 -5 12 -5 34 0 49 4 16 5 28 1 28 -4 0 -6 19 -4 42 3
49 3 49 0 104 -1 22 1 44 4 50 3 5 2 18 -2 29 -4 11 -4 32 1 48 4 15 4 27 -1
27 -17 0 3 33 44 74 48 47 116 130 116 140 0 4 5 12 10 19 42 50 122 221 134
288 3 13 5 24 7 24 1 0 3 9 4 20 2 11 6 36 10 55 4 19 8 51 10 70 4 33 7 779
4 797 -1 4 -1 13 0 18 2 7 1 259 0 370 0 12 0 452 0 478 1 33 0 147 0 160 0
11 0 440 0 480 1 33 0 147 0 160 0 11 0 440 0 480 0 24 0 143 0 165 0 9 0 116
0 237 0 294 -4 352 -34 480 -9 39 -18 77 -20 85 -2 8 -8 26 -13 40 -5 14 -10
28 -10 33 -2 16 -85 167 -115 210 -60 84 -132 159 -212 221 -95 73 -111 84
-213 137 -42 23 -81 44 -87 47 -5 4 -15 7 -21 8 -6 1 -27 9 -45 18 -46 21
-268 93 -310 100 -19 3 -50 10 -69 16 -19 6 -50 13 -69 16 -48 8 -70 12 -89
18 -9 3 -37 7 -62 10 -25 3 -54 8 -65 10 -36 6 -109 16 -157 21 -27 3 -69 8
-95 11 -48 5 -71 7 -238 19 -49 3 -119 9 -155 11 -69 6 -1118 13 -1122 8z
m2508 -1363 c8 -1 11 -245 11 -851 l0 -850 -2047 0 -2047 0 0 848 c0 466 1
849 2 852 3 4 4041 5 4081 1z m-3441 -2741 c28 -7 60 -20 72 -27 12 -8 25 -14
29 -12 14 5 130 -89 166 -136 21 -27 43 -55 48 -62 5 -7 21 -46 35 -87 66
-197 19 -396 -128 -537 -56 -54 -157 -113 -211 -123 -14 -3 -30 -7 -36 -11
-18 -11 -184 -8 -229 4 -149 41 -271 142 -336 276 -46 96 -64 227 -43 315 5
19 11 46 14 59 8 39 49 113 94 169 43 54 156 142 182 142 8 0 18 3 22 8 4 4
35 14 69 23 71 18 179 18 252 -1z m3050 6 c156 -30 318 -174 372 -329 21 -60
24 -74 27 -157 11 -232 -150 -447 -383 -510 -77 -21 -208 -16 -281 10 -267 95
-405 349 -336 619 23 90 61 156 131 226 56 55 161 121 211 130 10 2 19 4 19 5
0 1 16 4 35 7 19 2 36 6 38 7 5 5 128 -1 167 -8z"/>
<path d="M7665 7314 c-102 -17 -281 -76 -346 -115 -27 -16 -52 -29 -55 -29 -8
0 -120 -77 -137 -95 -9 -8 -18 -15 -22 -15 -6 0 -125 -119 -165 -166 -30 -34
-89 -119 -109 -154 -76 -140 -121 -265 -145 -400 -18 -105 -18 -293 0 -391 16
-83 61 -238 75 -255 6 -7 11 -20 13 -30 2 -11 20 -48 40 -82 20 -35 36 -68 36
-72 0 -5 4 -10 8 -12 5 -1 23 -25 41 -52 46 -67 236 -256 258 -256 4 0 16 -9
27 -19 12 -10 38 -28 59 -40 20 -12 54 -31 75 -42 46 -27 246 -99 272 -99 12
0 21 -9 24 -22 3 -13 4 -696 4 -1519 l-2 -1495 -451 0 c-450 0 -452 -1 -496
-23 -60 -31 -88 -59 -109 -107 -67 -153 12 -314 165 -339 55 -9 209 -10 223
-1 7 4 17 4 23 0 15 -9 443 -9 458 0 6 4 16 4 22 0 14 -8 604 -8 618 0 6 4 16
4 22 0 15 -9 443 -9 458 0 6 4 16 4 22 0 13 -8 455 -8 511 0 106 15 190 112
194 227 4 98 -48 177 -146 222 -43 20 -63 20 -538 21 -488 0 -493 0 -497 21
-9 47 0 3010 10 3011 22 1 134 37 203 65 177 73 355 207 473 356 69 87 166
254 175 303 2 8 7 23 13 35 28 57 56 185 67 297 33 342 -97 690 -353 945 -51
51 -97 93 -102 93 -5 0 -16 6 -23 13 -22 22 -106 77 -117 77 -6 0 -11 5 -11
10 0 6 -4 10 -9 10 -5 0 -42 15 -83 34 -77 36 -217 80 -290 91 -85 14 -303 13
-383 -1z"/>
</g>
</svg>
